<?xml version="1.0" encoding="UTF-8"?>
<svg xmlns="http://www.w3.org/2000/svg" xmlns:xlink="http://www.w3.org/1999/xlink" viewBox="0 0 96 96" width="96px" height="96px">
<g id="surface19667784">
<path style=" stroke:none;fill-rule:nonzero;fill:rgb(100%,100%,100%);fill-opacity:1;" d="M 48 28.5 C 58.769531 28.5 67.5 37.230469 67.5 48 C 67.5 58.769531 58.769531 67.5 48 67.5 C 37.230469 67.5 28.5 58.769531 28.5 48 C 28.5 37.230469 37.230469 28.5 48 28.5 Z M 51 12 C 51 12.550781 51 20.449219 51 21 C 51 22.65625 49.65625 24 48 24 C 46.34375 24 45 22.65625 45 21 C 45 20.449219 45 12.550781 45 12 C 45 10.34375 46.34375 9 48 9 C 49.65625 9 51 10.34375 51 12 Z M 75.578125 24.664062 C 75.1875 25.054688 69.601562 30.640625 69.214844 31.03125 C 68.042969 32.203125 66.140625 32.203125 64.972656 31.03125 C 63.800781 29.859375 63.800781 27.960938 64.972656 26.789062 C 65.359375 26.398438 70.945312 20.8125 71.335938 20.425781 C 72.507812 19.253906 74.40625 19.253906 75.578125 20.425781 C 76.75 21.59375 76.75 23.496094 75.578125 24.664062 Z M 84 51 C 83.449219 51 75.550781 51 75 51 C 73.34375 51 72 49.65625 72 48 C 72 46.34375 73.34375 45 75 45 C 75.550781 45 83.449219 45 84 45 C 85.65625 45 87 46.34375 87 48 C 87 49.65625 85.65625 51 84 51 Z M 71.335938 75.578125 C 70.945312 75.1875 65.359375 69.601562 64.96875 69.214844 C 63.796875 68.042969 63.796875 66.140625 64.96875 64.972656 C 66.140625 63.800781 68.039062 63.800781 69.210938 64.972656 C 69.601562 65.359375 75.1875 70.945312 75.574219 71.335938 C 76.746094 72.507812 76.746094 74.40625 75.574219 75.578125 C 74.40625 76.75 72.503906 76.75 71.335938 75.578125 Z M 45 84 C 45 83.449219 45 75.550781 45 75 C 45 73.34375 46.34375 72 48 72 C 49.65625 72 51 73.34375 51 75 C 51 75.550781 51 83.449219 51 84 C 51 85.65625 49.65625 87 48 87 C 46.34375 87 45 85.65625 45 84 Z M 20.421875 71.335938 C 20.8125 70.945312 26.398438 65.359375 26.785156 64.96875 C 27.957031 63.796875 29.859375 63.796875 31.027344 64.96875 C 32.199219 66.140625 32.199219 68.039062 31.027344 69.210938 C 30.640625 69.601562 25.054688 75.1875 24.664062 75.574219 C 23.492188 76.746094 21.59375 76.746094 20.421875 75.574219 C 19.25 74.40625 19.25 72.503906 20.421875 71.335938 Z M 12 45 C 12.550781 45 20.449219 45 21 45 C 22.65625 45 24 46.34375 24 48 C 24 49.65625 22.65625 51 21 51 C 20.449219 51 12.550781 51 12 51 C 10.34375 51 9 49.65625 9 48 C 9 46.34375 10.34375 45 12 45 Z M 24.664062 20.421875 C 25.054688 20.8125 30.640625 26.398438 31.03125 26.785156 C 32.203125 27.957031 32.203125 29.859375 31.03125 31.027344 C 29.859375 32.199219 27.960938 32.199219 26.789062 31.027344 C 26.398438 30.640625 20.8125 25.054688 20.425781 24.664062 C 19.253906 23.492188 19.253906 21.59375 20.425781 20.421875 C 21.59375 19.25 23.496094 19.25 24.664062 20.421875 Z M 24.664062 20.421875 "/>
</g>
</svg>
