<svg width="51" height="48" xmlns="http://www.w3.org/2000/svg" fill="none">
 <defs>
  <linearGradient y2="0" x2="0.5" y1="1" x1="0.5" id="a">
   <stop stop-color="#EDCF00"/>
   <stop stop-color="#F0D500" offset="0.33"/>
   <stop stop-color="#F9E500" offset="0.77"/>
   <stop stop-color="#FFF100" offset="1"/>
  </linearGradient>
  <linearGradient y2="0" x2="0.4999" y1="1.01103" x1="0.4999" id="b">
   <stop stop-color="#EDCF00"/>
   <stop stop-color="#F7E100" offset="0.59"/>
   <stop stop-color="#FFF100" offset="1"/>
  </linearGradient>
  <radialGradient gradientTransform="matrix(18.5398006439209,0,0,18.41360092163086,2.7947362065315247,43.82840371131897)" gradientUnits="userSpaceOnUse" r="1" cy="0" cx="0" id="c">
   <stop stop-color="#FFF100"/>
   <stop stop-color="#F9E500" offset="0.23"/>
   <stop stop-color="#F0D500" offset="0.67"/>
   <stop stop-color="#EDCF00" offset="1"/>
  </radialGradient>
 </defs>
 <g>
  <title>Layer 1</title>
  <path id="svg_2" fill="#FFF100" d="m49.87574,30.88241l0,-2.421c0,-0.45 -0.757,-0.879 -2.116,-1.266l0.033,-3.013c0,-4.642 -1.44,-9.171 -4.126,-12.975a22.825,22.825 0 0 0 -10.886,-8.29l-0.097,-0.604a1.722,1.722 0 0 0 -0.408,-0.872a1.747,1.747 0 0 0 -0.815,-0.521a23.148,23.148 0 0 0 -12.925,0c-0.317,0.093 -0.6,0.273 -0.818,0.52c-0.217,0.246 -0.36,0.548 -0.41,0.872l-0.093,0.563a22.831,22.831 0 0 0 -10.962,8.283a22.498,22.498 0 0 0 -4.159,13.023l0,3.026c-1.34,0.386 -2.087,0.81 -2.087,1.257l0,2.421a0.59,0.59 0 0 0 0.087,0.408a5.852,5.852 0 0 1 2.247,-1.015c2.072,-0.5 4.179,-0.85 6.303,-1.046a4.25,4.25 0 0 1 3.307,1.057a8.95,8.95 0 0 0 6.009,2.312l13.964,0a8.943,8.943 0 0 0 6.008,-2.314a4.253,4.253 0 0 1 3.308,-1.069c2.123,0.196 4.23,0.544 6.302,1.042a5.26,5.26 0 0 1 2.13,0.925c0.035,0.035 0.078,0.066 0.108,0.099a0.6,0.6 0 0 0 0.096,-0.402z"/>
  <path id="svg_3" fill="url(#a)" d="m11.98374,25.78741a53.064,53.064 0 0 1 -0.03,-1.673c0.007,-8.416 1.992,-15.964 5.262,-21.235a22.831,22.831 0 0 0 -10.962,8.282a22.498,22.498 0 0 0 -4.16,13.02l0,3.026a55.9,55.9 0 0 1 9.89,-1.42z"/>
  <path id="svg_4" fill="url(#b)" d="m47.79074,24.18141a22.425,22.425 0 0 0 -5.215,-14.396a46.55,46.55 0 0 1 2.162,14.325c0,0.82 -0.022,1.63 -0.06,2.435a28.49,28.49 0 0 1 3.074,0.648l0.038,-3.012l0.001,0z"/>
  <path id="svg_5" fill="url(#c)" d="m47.54174,30.26941c-2.073,-0.5 -4.18,-0.85 -6.303,-1.046a4.252,4.252 0 0 0 -3.308,1.062a8.943,8.943 0 0 1 -6.009,2.313l-13.958,0a8.948,8.948 0 0 1 -6.006,-2.312a4.249,4.249 0 0 0 -3.308,-1.071c-2.124,0.196 -4.23,0.546 -6.303,1.045a5.929,5.929 0 0 0 -2.246,1.015c1.06,1.608 11.782,3.295 24.846,3.295c13.065,0 23.782,-1.693 24.844,-3.294c-0.037,-0.032 -0.078,-0.063 -0.109,-0.098a5.463,5.463 0 0 0 -2.14,-0.909z"/>
  <path id="svg_6" fill="#0A0A0A" d="m24.93974,7.10741l-5.346,9.022l5.346,3.29l0,-12.313l0,0.001z"/>
  <path id="svg_7" fill="#4B4D4D" d="m24.94174,7.11041l0,12.306l5.345,-3.284l-5.345,-9.022zm0,14.093l0,4.291c0.1,-0.142 5.345,-7.58 5.345,-7.583l-5.345,3.293l0,-0.001z"/>
  <path id="svg_8" fill="#0A0A0A" d="m24.94174,21.20541l-5.346,-3.288l5.346,7.58l0,-4.294l0,0.002z"/>
 </g>
</svg>